<svg width="16" height="16" viewBox="0 0 16 16" fill="none" xmlns="http://www.w3.org/2000/svg">
<path d="M8 13.0625C8.5 13.0625 9 12.875 9.4375 12.5625L16 7.84375V14.5312C16 15.3438 15.3125 16 14.5 16H1.5C0.65625 16 0 15.3438 0 14.5V7.84375L6.53125 12.5625C6.96875 12.9062 7.46875 13.0625 8 13.0625ZM15.4062 5.09375C15.7812 5.375 16 5.8125 16 6.28125V6.625L13 8.78125V3H3V8.78125L0 6.625V6.28125C0 5.8125 0.1875 5.375 0.5625 5.09375C0.84375 4.875 1.09375 4.6875 1.5 4.40625V3C1.5 2.1875 2.15625 1.5 3 1.5H5.40625C5.5 1.4375 5.59375 1.375 5.6875 1.3125C6.21875 0.9375 7.25 0 8 0.03125C8.71875 0 9.75 0.9375 10.2812 1.3125C10.375 1.375 10.4688 1.4375 10.5625 1.5H13C13.8125 1.5 14.5 2.1875 14.5 3V4.40625C14.875 4.6875 15.125 4.875 15.4062 5.09375ZM5.5 8C5.21875 8 5 7.78125 5 7.5C5 7.25 5.21875 7 5.5 7H10.5C10.75 7 11 7.25 11 7.5C11 7.75 10.75 8 10.5 8H5.5ZM5.5 6C5.21875 6 5 5.78125 5 5.5C5 5.25 5.21875 5 5.5 5H10.5C10.75 5 11 5.21875 11 5.5C11 5.75 10.75 6 10.5 6H5.5Z" fill="white"/>
</svg>
